<mxfile host="Electron" agent="Mozilla/5.0 (Windows NT 10.0; Win64; x64) AppleWebKit/537.36 (KHTML, like Gecko) draw.io/26.0.16 Chrome/132.0.6834.196 Electron/34.2.0 Safari/537.36" version="26.0.16">
  <diagram name="Page-1" id="7JmDcUcXtfHRZO2dQLSh">
    <mxGraphModel dx="1024" dy="597" grid="1" gridSize="10" guides="1" tooltips="1" connect="1" arrows="1" fold="1" page="1" pageScale="1" pageWidth="850" pageHeight="1100" math="0" shadow="0">
      <root>
        <mxCell id="0" />
        <mxCell id="1" parent="0" />
        <mxCell id="7SWy-Kvl8IP_9XPHrhIU-3" value="&lt;span id=&quot;docs-internal-guid-0ae4e22b-7fff-5505-b2a1-f54cb711f2f1&quot;&gt;&lt;span style=&quot;font-size: 11pt; font-family: Arial, sans-serif; background-color: transparent; font-variant-numeric: normal; font-variant-east-asian: normal; font-variant-alternates: normal; font-variant-position: normal; font-variant-emoji: normal; vertical-align: baseline; white-space-collapse: preserve;&quot;&gt;Diseñar los planos estructurales de la casa&lt;/span&gt;&lt;/span&gt;" style="rounded=1;whiteSpace=wrap;html=1;fillColor=#f0a30a;strokeColor=#BD7000;fontColor=#000000;" vertex="1" parent="1">
          <mxGeometry x="60" y="90" width="130" height="80" as="geometry" />
        </mxCell>
        <mxCell id="7SWy-Kvl8IP_9XPHrhIU-4" value="&lt;span id=&quot;docs-internal-guid-eac758ae-7fff-db10-2ab8-4adff7f79cbf&quot;&gt;&lt;span style=&quot;font-size: 11pt; font-family: Arial, sans-serif; color: rgb(0, 0, 0); background-color: transparent; font-variant-numeric: normal; font-variant-east-asian: normal; font-variant-alternates: normal; font-variant-position: normal; font-variant-emoji: normal; vertical-align: baseline; white-space-collapse: preserve;&quot;&gt;Instalar tubería se servicios básicos&lt;/span&gt;&lt;/span&gt;" style="rounded=1;whiteSpace=wrap;html=1;fillColor=#f0a30a;strokeColor=#BD7000;fontColor=#000000;" vertex="1" parent="1">
          <mxGeometry x="55" y="290" width="130" height="80" as="geometry" />
        </mxCell>
        <mxCell id="7SWy-Kvl8IP_9XPHrhIU-5" value="&lt;span id=&quot;docs-internal-guid-ff159c7e-7fff-43d9-2a57-6dbc618ed816&quot;&gt;&lt;span style=&quot;font-size: 11pt; font-family: Arial, sans-serif; color: rgb(0, 0, 0); background-color: transparent; font-variant-numeric: normal; font-variant-east-asian: normal; font-variant-alternates: normal; font-variant-position: normal; font-variant-emoji: normal; vertical-align: baseline; white-space-collapse: preserve;&quot;&gt;Comprar materiales&lt;/span&gt;&lt;/span&gt;" style="rounded=1;whiteSpace=wrap;html=1;fillColor=#f0a30a;strokeColor=#BD7000;fontColor=#000000;" vertex="1" parent="1">
          <mxGeometry x="55" y="180" width="130" height="80" as="geometry" />
        </mxCell>
        <mxCell id="7SWy-Kvl8IP_9XPHrhIU-6" value="&lt;span id=&quot;docs-internal-guid-9e34159a-7fff-69a1-f93b-22a08bd8858a&quot;&gt;&lt;span style=&quot;font-size: 11pt; font-family: Arial, sans-serif; color: rgb(0, 0, 0); background-color: transparent; font-variant-numeric: normal; font-variant-east-asian: normal; font-variant-alternates: normal; font-variant-position: normal; font-variant-emoji: normal; vertical-align: baseline; white-space-collapse: preserve;&quot;&gt;Contratar maestro de obra o constructora&lt;/span&gt;&lt;/span&gt;" style="rounded=1;whiteSpace=wrap;html=1;fillColor=#f0a30a;strokeColor=#BD7000;fontColor=#000000;" vertex="1" parent="1">
          <mxGeometry x="60" y="400" width="130" height="80" as="geometry" />
        </mxCell>
        <mxCell id="7SWy-Kvl8IP_9XPHrhIU-7" value="&lt;span id=&quot;docs-internal-guid-ae0e0886-7fff-9e6f-cbe9-bf67b86cf17e&quot;&gt;&lt;span style=&quot;font-size: 11pt; font-family: Arial, sans-serif; color: rgb(0, 0, 0); background-color: transparent; font-variant-numeric: normal; font-variant-east-asian: normal; font-variant-alternates: normal; font-variant-position: normal; font-variant-emoji: normal; vertical-align: baseline; white-space-collapse: preserve;&quot;&gt;Levantar Muros y estructura&lt;/span&gt;&lt;/span&gt;" style="rounded=1;whiteSpace=wrap;html=1;fillColor=#f0a30a;strokeColor=#BD7000;fontColor=#000000;" vertex="1" parent="1">
          <mxGeometry x="60" y="490" width="130" height="80" as="geometry" />
        </mxCell>
        <mxCell id="7SWy-Kvl8IP_9XPHrhIU-8" value="&lt;span id=&quot;docs-internal-guid-626faea6-7fff-da08-3162-ef0c57c1201a&quot;&gt;&lt;span style=&quot;font-size: 11pt; font-family: Arial, sans-serif; color: rgb(0, 0, 0); background-color: transparent; font-variant-numeric: normal; font-variant-east-asian: normal; font-variant-alternates: normal; font-variant-position: normal; font-variant-emoji: normal; vertical-align: baseline; white-space-collapse: preserve;&quot;&gt;Colocar o instalar estructura electrica&lt;/span&gt;&lt;/span&gt;" style="rounded=1;whiteSpace=wrap;html=1;fillColor=#60a917;strokeColor=#2D7600;fontColor=#ffffff;" vertex="1" parent="1">
          <mxGeometry x="375" y="200" width="130" height="80" as="geometry" />
        </mxCell>
        <mxCell id="7SWy-Kvl8IP_9XPHrhIU-9" value="&lt;span id=&quot;docs-internal-guid-1cf296c4-7fff-f336-f7e9-277b2c966e39&quot;&gt;&lt;span style=&quot;font-size: 11pt; font-family: Arial, sans-serif; color: rgb(0, 0, 0); background-color: transparent; font-variant-numeric: normal; font-variant-east-asian: normal; font-variant-alternates: normal; font-variant-position: normal; font-variant-emoji: normal; vertical-align: baseline; white-space-collapse: preserve;&quot;&gt;Instalar el sistema del alcantarillado&lt;/span&gt;&lt;/span&gt;" style="rounded=1;whiteSpace=wrap;html=1;fillColor=#60a917;strokeColor=#2D7600;fontColor=#ffffff;" vertex="1" parent="1">
          <mxGeometry x="55" y="590" width="130" height="80" as="geometry" />
        </mxCell>
        <mxCell id="7SWy-Kvl8IP_9XPHrhIU-10" value="&lt;span id=&quot;docs-internal-guid-eac758ae-7fff-db10-2ab8-4adff7f79cbf&quot;&gt;&lt;span style=&quot;font-size: 11pt; font-family: Arial, sans-serif; color: rgb(0, 0, 0); background-color: transparent; font-variant-numeric: normal; font-variant-east-asian: normal; font-variant-alternates: normal; font-variant-position: normal; font-variant-emoji: normal; vertical-align: baseline; white-space-collapse: preserve;&quot;&gt;Must Have&lt;/span&gt;&lt;/span&gt;" style="rounded=1;whiteSpace=wrap;html=1;fillColor=#f0a30a;strokeColor=#BD7000;fontColor=#000000;" vertex="1" parent="1">
          <mxGeometry x="60" y="20" width="120" height="50" as="geometry" />
        </mxCell>
        <mxCell id="7SWy-Kvl8IP_9XPHrhIU-11" value="&lt;span id=&quot;docs-internal-guid-eac758ae-7fff-db10-2ab8-4adff7f79cbf&quot;&gt;&lt;span style=&quot;font-size: 11pt; font-family: Arial, sans-serif; color: rgb(0, 0, 0); background-color: transparent; font-variant-numeric: normal; font-variant-east-asian: normal; font-variant-alternates: normal; font-variant-position: normal; font-variant-emoji: normal; vertical-align: baseline; white-space-collapse: preserve;&quot;&gt;Should Have&lt;/span&gt;&lt;/span&gt;" style="rounded=1;whiteSpace=wrap;html=1;fillColor=#f0a30a;strokeColor=#BD7000;fontColor=#000000;" vertex="1" parent="1">
          <mxGeometry x="220" y="20" width="120" height="50" as="geometry" />
        </mxCell>
        <mxCell id="7SWy-Kvl8IP_9XPHrhIU-12" value="&lt;span id=&quot;docs-internal-guid-eac758ae-7fff-db10-2ab8-4adff7f79cbf&quot;&gt;&lt;span style=&quot;font-size: 11pt; font-family: Arial, sans-serif; color: rgb(0, 0, 0); background-color: transparent; font-variant-numeric: normal; font-variant-east-asian: normal; font-variant-alternates: normal; font-variant-position: normal; font-variant-emoji: normal; vertical-align: baseline; white-space-collapse: preserve;&quot;&gt;Could Have&lt;/span&gt;&lt;/span&gt;" style="rounded=1;whiteSpace=wrap;html=1;fillColor=#f0a30a;strokeColor=#BD7000;fontColor=#000000;" vertex="1" parent="1">
          <mxGeometry x="380" y="20" width="120" height="50" as="geometry" />
        </mxCell>
        <mxCell id="7SWy-Kvl8IP_9XPHrhIU-13" value="&lt;span id=&quot;docs-internal-guid-eac758ae-7fff-db10-2ab8-4adff7f79cbf&quot;&gt;&lt;span style=&quot;font-size: 11pt; font-family: Arial, sans-serif; color: rgb(0, 0, 0); background-color: transparent; font-variant-numeric: normal; font-variant-east-asian: normal; font-variant-alternates: normal; font-variant-position: normal; font-variant-emoji: normal; vertical-align: baseline; white-space-collapse: preserve;&quot;&gt;Won’t Have&lt;/span&gt;&lt;/span&gt;" style="rounded=1;whiteSpace=wrap;html=1;fillColor=#f0a30a;strokeColor=#BD7000;fontColor=#000000;" vertex="1" parent="1">
          <mxGeometry x="530" y="20" width="120" height="50" as="geometry" />
        </mxCell>
        <mxCell id="7SWy-Kvl8IP_9XPHrhIU-14" value="&lt;span id=&quot;docs-internal-guid-61ae8753-7fff-85ff-677d-23d62262af80&quot;&gt;&lt;span style=&quot;font-size: 11pt; font-family: Arial, sans-serif; color: rgb(0, 0, 0); background-color: transparent; font-variant-numeric: normal; font-variant-east-asian: normal; font-variant-alternates: normal; font-variant-position: normal; font-variant-emoji: normal; vertical-align: baseline; white-space-collapse: preserve;&quot;&gt;Colocar ladrillos &lt;/span&gt;&lt;/span&gt;" style="rounded=1;whiteSpace=wrap;html=1;fillColor=#f0a30a;strokeColor=#BD7000;fontColor=#000000;" vertex="1" parent="1">
          <mxGeometry x="215" y="90" width="130" height="80" as="geometry" />
        </mxCell>
        <mxCell id="7SWy-Kvl8IP_9XPHrhIU-15" value="&lt;span id=&quot;docs-internal-guid-3c0f107f-7fff-d517-85ed-e54de9c1fdb1&quot;&gt;&lt;span style=&quot;font-size: 11pt; font-family: Arial, sans-serif; color: rgb(0, 0, 0); background-color: transparent; font-variant-numeric: normal; font-variant-east-asian: normal; font-variant-alternates: normal; font-variant-position: normal; font-variant-emoji: normal; vertical-align: baseline; white-space-collapse: preserve;&quot;&gt;Colocar cubierta y techo&lt;/span&gt;&lt;/span&gt;" style="rounded=1;whiteSpace=wrap;html=1;fillColor=#f0a30a;strokeColor=#BD7000;fontColor=#000000;" vertex="1" parent="1">
          <mxGeometry x="220" y="200" width="130" height="80" as="geometry" />
        </mxCell>
        <mxCell id="7SWy-Kvl8IP_9XPHrhIU-16" value="&lt;span id=&quot;docs-internal-guid-ff237923-7fff-0943-c56f-94840bc2b8f5&quot;&gt;&lt;span style=&quot;font-size: 11pt; font-family: Arial, sans-serif; color: rgb(0, 0, 0); background-color: transparent; font-variant-numeric: normal; font-variant-east-asian: normal; font-variant-alternates: normal; font-variant-position: normal; font-variant-emoji: normal; vertical-align: baseline; white-space-collapse: preserve;&quot;&gt;Iluminación y tomacorriente&lt;/span&gt;&lt;/span&gt;" style="rounded=1;whiteSpace=wrap;html=1;fillColor=#60a917;strokeColor=#2D7600;fontColor=#ffffff;" vertex="1" parent="1">
          <mxGeometry x="375" y="100" width="130" height="80" as="geometry" />
        </mxCell>
        <mxCell id="7SWy-Kvl8IP_9XPHrhIU-17" value="&lt;span id=&quot;docs-internal-guid-7a22c8e7-7fff-522e-53c7-6cc9f971d7a7&quot;&gt;&lt;span style=&quot;font-size: 11pt; font-family: Arial, sans-serif; color: rgb(0, 0, 0); background-color: transparent; font-variant-numeric: normal; font-variant-east-asian: normal; font-variant-alternates: normal; font-variant-position: normal; font-variant-emoji: normal; vertical-align: baseline; white-space-collapse: preserve;&quot;&gt;colocar baños y duchas requeridas&lt;/span&gt;&lt;/span&gt;" style="rounded=1;whiteSpace=wrap;html=1;fillColor=#f0a30a;strokeColor=#BD7000;fontColor=#000000;" vertex="1" parent="1">
          <mxGeometry x="220" y="300" width="130" height="80" as="geometry" />
        </mxCell>
        <mxCell id="7SWy-Kvl8IP_9XPHrhIU-18" value="&lt;span id=&quot;docs-internal-guid-61ae8753-7fff-85ff-677d-23d62262af80&quot;&gt;&lt;span style=&quot;font-size: 11pt; font-family: Arial, sans-serif; color: rgb(0, 0, 0); background-color: transparent; font-variant-numeric: normal; font-variant-east-asian: normal; font-variant-alternates: normal; font-variant-position: normal; font-variant-emoji: normal; vertical-align: baseline; white-space-collapse: preserve;&quot;&gt;Colocar ladrillos &lt;/span&gt;&lt;/span&gt;" style="rounded=1;whiteSpace=wrap;html=1;fillColor=#f0a30a;strokeColor=#BD7000;fontColor=#000000;" vertex="1" parent="1">
          <mxGeometry x="220" y="400" width="130" height="80" as="geometry" />
        </mxCell>
        <mxCell id="7SWy-Kvl8IP_9XPHrhIU-19" value="&lt;span id=&quot;docs-internal-guid-1dcdb2c6-7fff-8b7e-add0-218dcf794709&quot;&gt;&lt;span style=&quot;font-size: 11pt; font-family: Arial, sans-serif; color: rgb(0, 0, 0); background-color: transparent; font-variant-numeric: normal; font-variant-east-asian: normal; font-variant-alternates: normal; font-variant-position: normal; font-variant-emoji: normal; vertical-align: baseline; white-space-collapse: preserve;&quot;&gt;Diseño de lugares verdes/ paisaje&lt;/span&gt;&lt;/span&gt;" style="rounded=1;whiteSpace=wrap;html=1;fillColor=#60a917;strokeColor=#2D7600;fontColor=#ffffff;fontStyle=1" vertex="1" parent="1">
          <mxGeometry x="530" y="100" width="130" height="80" as="geometry" />
        </mxCell>
        <mxCell id="7SWy-Kvl8IP_9XPHrhIU-20" value="&lt;span id=&quot;docs-internal-guid-01c0a0f3-7fff-cb70-058a-e0bec0cb67ca&quot;&gt;&lt;span style=&quot;font-size: 11pt; font-family: Arial, sans-serif; color: rgb(0, 0, 0); background-color: transparent; font-variant-numeric: normal; font-variant-east-asian: normal; font-variant-alternates: normal; font-variant-position: normal; font-variant-emoji: normal; vertical-align: baseline; white-space-collapse: preserve;&quot;&gt;Instalación de puertas y ventanas&lt;/span&gt;&lt;/span&gt;" style="rounded=1;whiteSpace=wrap;html=1;fillColor=#60a917;strokeColor=#2D7600;fontColor=#ffffff;" vertex="1" parent="1">
          <mxGeometry x="530" y="200" width="130" height="80" as="geometry" />
        </mxCell>
        <mxCell id="7SWy-Kvl8IP_9XPHrhIU-21" value="&lt;span id=&quot;docs-internal-guid-30ec98bb-7fff-eb63-7ae0-0301d35fc524&quot;&gt;&lt;span style=&quot;font-size: 11pt; font-family: Arial, sans-serif; color: rgb(0, 0, 0); background-color: transparent; font-variant-numeric: normal; font-variant-east-asian: normal; font-variant-alternates: normal; font-variant-position: normal; font-variant-emoji: normal; vertical-align: baseline; white-space-collapse: preserve;&quot;&gt;Acabados - instalaciones&lt;/span&gt;&lt;/span&gt;" style="rounded=1;whiteSpace=wrap;html=1;fillColor=#60a917;strokeColor=#2D7600;fontColor=#ffffff;" vertex="1" parent="1">
          <mxGeometry x="530" y="300" width="130" height="80" as="geometry" />
        </mxCell>
      </root>
    </mxGraphModel>
  </diagram>
</mxfile>
